<svg width="160" height="160" viewBox="0 0 160 160" fill="none" xmlns="http://www.w3.org/2000/svg">
<circle cx="80" cy="80" r="80" fill="#F09BBE"/>
<circle cx="80.0002" cy="79.9985" r="76.1905" fill="#2A7C4F"/>
<circle cx="79.9998" cy="79.9992" r="72.381" fill="white"/>
<path d="M148.571 80C148.571 117.871 117.871 148.571 80 148.571C42.1291 148.571 11.4286 117.871 11.4286 80C11.4286 42.1291 42.1291 11.4286 80 11.4286C117.871 11.4286 148.571 42.1291 148.571 80Z" fill="url(#paint0_linear_357_868)"/>
<mask id="mask0_357_868" style="mask-type:alpha" maskUnits="userSpaceOnUse" x="11" y="11" width="138" height="138">
<circle cx="79.9996" cy="80.0025" r="68.5714" fill="white"/>
</mask>
<g mask="url(#mask0_357_868)">
<path d="M66.3703 82.1635C67.3679 86.5811 79.3739 104.311 85.2522 112.624H0.461792L2.2431 110.843C5.50884 103.064 12.6103 87.0799 14.8904 85.3698C17.1705 83.6598 19.6406 81.5697 20.5906 80.7384C22.1344 78.304 25.507 73.1857 26.6471 72.1881C27.7871 71.1906 29.2597 70.8225 29.8534 70.7631C32.7035 66.9155 39.3538 61.7972 42.3226 59.719L42.6881 59.3681C44.4367 60.412 57.891 74.9916 64.4109 82.1635L65.4797 80.9166C65.9072 81.4866 66.2516 81.9854 66.3703 82.1635Z" fill="#2A7C4F"/>
<path d="M43.0159 53.0257V56.6482M43.0159 60.9566V56.6482M43.0159 56.6482H39.3385H47.0942" stroke="#2A7C4F"/>
<path d="M33.0599 73.7907C35.4825 71.0831 40.007 68.2686 41.9664 67.1998C33.2736 75.7501 31.4567 78.9565 30.2098 82.341C25.4002 87.1505 26.2909 86.438 25.4002 87.5068C23.465 89.8291 22.7283 93.5632 21.6595 95.7008C20.8045 97.4109 22.1939 98.729 21.6595 100.51C18.2227 105.898 18.9875 111.02 17.9187 112.623C16.1374 112.801 13.6359 112.623 13.4655 112.623C13.1092 112.623 10.4372 104.785 10.4372 103.895C10.4372 103.004 15.0686 93.0288 16.8499 92.3163C18.6313 91.6038 23.0845 83.4098 23.7971 82.6972C24.5096 81.9847 26.1128 80.0253 26.8253 78.6002C27.3953 77.4602 31.6348 74.0876 33.0599 73.7907Z" fill="url(#paint1_linear_357_868)"/>
<path d="M54.079 95.8792C54.9697 95.0649 57.1072 90.3571 63.8762 86.2601L60.3136 91.0696L59.7792 93.9197C57.4635 94.0979 54.079 100.788 54.079 102.648C54.079 105.855 51.407 105.676 50.8727 108.705C50.7619 109.332 46.7756 110.902 46.9538 112.624H39.6504L41.788 108.705C41.7286 107.992 44.5312 105.142 46.9538 103.717C49.982 101.936 47.8444 101.579 54.079 95.8792Z" fill="url(#paint2_linear_357_868)"/>
<path d="M145.714 92.5404C148.729 96.8261 146.358 96.0922 147.618 100.318C148.399 102.975 145.269 109.297 146.204 112.064H77.2867C77.3707 111.762 77.8411 110.646 79.0506 108.593C80.5625 106.027 82.7044 99.3863 84.9722 91.8399C86.7865 85.8028 89.9278 78.8602 91.2717 76.1435C92.2797 74.6342 94.7239 71.1629 96.4374 69.3517C98.5792 67.0878 100.721 62.8619 101.351 62.2581C101.487 62.1276 102.397 60.8388 104.92 61.2706C108.252 61.8408 109.738 65.8738 112.063 65.8738C113.65 65.8738 116.507 72.0642 121.766 71.8783C123.174 71.2706 131.963 66.5648 135.555 70.6357C137.936 73.3341 139.188 76.4873 140.158 79.6833C140.571 81.0454 142.169 85.8366 143.015 87.1436C144.761 89.842 144.932 91.4296 145.714 92.5404Z" fill="#2A7C4F"/>
<path d="M79.3967 112.064L83.7919 106.262C84.5538 105.442 84.6278 101.831 87.4839 98.1749C91.8791 92.549 90.6485 93.9555 93.6372 86.5715C94.399 86.9818 96.1337 91.8106 96.9776 96.5926C98.2082 94.5415 100.599 90.2284 100.318 89.3845C99.9663 88.3296 98.0324 87.2748 99.7905 84.9893C101.549 82.7038 103.307 77.2537 104.537 74.9682C105.065 78.7774 103.834 84.1102 104.889 86.5715C105.944 87.5092 105.944 88.5054 110.691 89.3845C109.322 91.3239 104.788 92.6525 104.872 102.935C104.932 103.25 104.942 103.542 104.889 103.801C104.88 103.505 104.874 103.217 104.872 102.935C104.396 100.465 100.788 96.5926 99.7905 96.5926C93.2856 102.746 94.8182 97.9116 91.7033 103.449C90.121 106.262 88.4215 111.068 88.3629 112.064H79.3967Z" fill="url(#paint3_linear_357_868)"/>
<path d="M114.383 95.0104C118.883 92.4787 123.056 87.2748 124.58 84.9893C123.876 89.3845 116.141 95.0104 118.25 95.0104C119.938 95.0104 119.54 96.8857 119.129 97.8233C117.02 96.9443 116.141 99.4056 115.613 101.339C115.191 102.887 114.148 109.134 113.679 112.064H104.01C105.592 107.434 109.882 97.542 114.383 95.0104Z" fill="url(#paint4_linear_357_868)"/>
<path d="M53.4916 111.591C61.1106 108.82 77.1423 106.511 77.1423 106.511H80.7931H83.9678C83.9678 106.511 85.571 107.489 81.9042 108.575C79.6208 109.251 77.936 108.575 70.7931 111.115C63.6503 113.654 79.3646 112.226 95.7138 117.781C112.063 123.337 73.9677 127.958 71.2693 130.171C68.5709 132.384 83.1741 132.702 89.5233 132.702C95.8725 132.702 113.218 135.986 112.698 140.162C112.015 145.643 90.7931 153.654 72.063 150.162C53.3328 146.67 52.5392 142.861 45.3963 139.845C38.2535 136.829 37.183 134.655 39.5233 131.273C41.5806 128.301 54.4439 123.654 75.2376 122.702C83.0153 121.115 53.4916 120.48 48.8884 118.416C44.2852 116.353 45.8726 114.361 53.4916 111.591Z" fill="#0096E1"/>
<path d="M21.1108 111.432C18.952 111.94 18.4653 113.548 18.8886 114.289L18.5711 115.876C17.46 117.464 26.0314 126.035 30.952 131.114C35.8727 136.194 54.1266 147.305 66.0314 150.003C77.9362 152.702 95.5552 148.416 107.143 145.718C118.73 143.019 143.968 115.559 144.127 114.289C144.285 113.019 142.381 112.86 138.73 110.638C135.079 108.416 127.777 111.432 123.968 108.733C120.158 106.035 112.857 107.305 108.254 107.305C103.65 107.305 89.3647 107.305 87.46 105.4C85.5552 103.495 72.2219 104.606 66.0314 103.813C59.8409 103.019 45.8727 105.559 43.4917 105.4C41.1108 105.241 33.333 107.464 30.952 107.305C28.5711 107.146 23.8092 110.797 21.1108 111.432Z" fill="#334E3F"/>
<path d="M53.4914 111.59C61.1104 108.82 78.2533 104.289 78.2533 104.289H81.9041L83.4914 104.411C83.4914 104.411 79.0469 106.987 76.8247 108.098C71.524 110.749 69.9993 110.955 70.4755 112.384C70.9517 113.813 79.3645 112.225 95.7136 117.781C112.063 123.336 73.9676 127.958 71.2691 130.171C68.5707 132.384 83.1739 132.702 89.5231 132.702C95.8723 132.702 113.218 135.985 112.698 140.162C112.015 145.643 90.793 153.654 72.0628 150.162C53.3326 146.67 52.539 142.86 45.3962 139.844C38.2533 136.828 37.1828 134.654 39.5231 131.273C41.5804 128.301 54.4437 123.654 75.2374 122.702C83.0152 121.114 53.4914 120.479 48.8882 118.416C44.285 116.352 45.8724 114.361 53.4914 111.59Z" fill="#0096E1"/>
<mask id="mask1_357_868" style="mask-type:alpha" maskUnits="userSpaceOnUse" x="38" y="104" width="75" height="48">
<path d="M53.4914 111.591C61.1104 108.82 78.2532 104.289 78.2532 104.289H81.904L83.4913 104.411C83.4913 104.411 79.0469 106.988 76.8247 108.099C71.5239 110.749 69.9993 110.956 70.4755 112.384C70.9516 113.813 79.3644 112.226 95.7135 117.781C112.063 123.337 73.9675 127.958 71.2691 130.171C68.5707 132.384 83.1739 132.702 89.5231 132.702C95.8723 132.702 113.218 135.986 112.698 140.162C112.015 145.643 90.7929 153.654 72.0628 150.162C53.3326 146.67 52.539 142.861 45.3961 139.845C38.2533 136.829 37.1828 134.655 39.5231 131.273C41.5804 128.301 54.4437 123.654 75.2374 122.702C83.0151 121.114 53.4914 120.48 48.8882 118.416C44.285 116.353 45.8724 114.361 53.4914 111.591Z" fill="#0096E1"/>
</mask>
<g mask="url(#mask1_357_868)">
<path d="M50.1582 116.193C47.7455 114.923 68.9412 107.304 78.7296 104.288C76.6661 103.812 48.4121 112.384 46.5074 113.495C44.6026 114.606 43.9677 114.923 45.3963 117.939C46.5391 120.352 64.6026 121.273 73.4915 121.431C67.4597 119.791 52.5708 117.463 50.1582 116.193Z" fill="url(#paint5_linear_357_868)"/>
<path d="M46.8247 133.814C49.6819 129.846 65.9782 125.243 75.3962 122.862C52.9379 122.229 43.4017 128.057 40.5068 129.827L40.4755 129.846C37.6184 131.592 38.0946 134.132 37.9358 134.766C37.8089 135.274 40.1052 138.153 41.2692 139.528C43.8618 140.057 48.8247 140.989 47.9358 140.481C46.8247 139.846 44.6615 136.819 46.8247 133.814Z" fill="url(#paint6_linear_357_868)"/>
<path d="M105.238 137.941C101.809 135.528 83.174 133.02 74.2852 132.068C85.7137 131.115 100.634 132.861 107.936 135.242C115.238 137.623 113.809 141.274 114.285 141.274C114.666 141.274 110.211 142.226 107.936 142.702C108.465 142.12 108.666 140.353 105.238 137.941Z" fill="url(#paint7_linear_357_868)"/>
</g>
</g>
<defs>
<linearGradient id="paint0_linear_357_868" x1="29.6826" y1="26.6667" x2="141.429" y2="142.064" gradientUnits="userSpaceOnUse">
<stop stop-color="#F09BBE"/>
<stop offset="0.910836" stop-color="#8A596D" stop-opacity="0.06"/>
</linearGradient>
<linearGradient id="paint1_linear_357_868" x1="-4.92069" y1="46.3532" x2="47.9365" y2="104.131" gradientUnits="userSpaceOnUse">
<stop stop-color="#F09BBE"/>
<stop offset="1" stop-color="white"/>
</linearGradient>
<linearGradient id="paint2_linear_357_868" x1="42.4539" y1="92.4502" x2="58.9352" y2="108.927" gradientUnits="userSpaceOnUse">
<stop stop-color="#F09BBE"/>
<stop offset="1" stop-color="white"/>
</linearGradient>
<linearGradient id="paint3_linear_357_868" x1="87.4598" y1="78.8892" x2="124.58" y2="106.516" gradientUnits="userSpaceOnUse">
<stop stop-color="#F09BBE"/>
<stop offset="1" stop-color="white"/>
</linearGradient>
<linearGradient id="paint4_linear_357_868" x1="87.4598" y1="78.8892" x2="124.58" y2="106.516" gradientUnits="userSpaceOnUse">
<stop stop-color="#F09BBE"/>
<stop offset="1" stop-color="white"/>
</linearGradient>
<linearGradient id="paint5_linear_357_868" x1="87.1904" y1="116.826" x2="41.428" y2="108.574" gradientUnits="userSpaceOnUse">
<stop offset="0.683946" stop-color="#0096E1"/>
<stop offset="0.807086" stop-color="#1E9FE0"/>
<stop offset="0.906038" stop-color="#6DB8DD"/>
<stop offset="1" stop-color="white"/>
</linearGradient>
<linearGradient id="paint6_linear_357_868" x1="36.666" y1="118.417" x2="64.8035" y2="140.099" gradientUnits="userSpaceOnUse">
<stop stop-color="white"/>
<stop offset="0.316175" stop-color="#80CBF0"/>
<stop offset="0.522095" stop-color="#0096E1"/>
</linearGradient>
<linearGradient id="paint7_linear_357_868" x1="116.031" y1="132.702" x2="72.8566" y2="133.814" gradientUnits="userSpaceOnUse">
<stop stop-color="white"/>
<stop offset="0.0432692" stop-color="#80CBF0"/>
<stop offset="0.504023" stop-color="#0096E1"/>
</linearGradient>
</defs>
</svg>
