<svg width="1290" height="925" viewBox="0 0 1290 925" fill="none" xmlns="http://www.w3.org/2000/svg">
<path d="M160.591 856.76L165.871 896.8C162.938 901.64 158.831 906.113 153.551 910.22C148.418 914.327 141.744 917.7 133.531 920.34C125.464 922.833 115.638 924.08 104.051 924.08C84.3976 923.933 67.3109 920.78 52.7909 914.62C38.4176 908.313 27.3443 899.22 19.5709 887.34C11.7976 875.46 7.91094 860.94 7.91094 843.78C7.91094 827.06 11.7243 812.76 19.3509 800.88C26.9776 788.853 37.9776 779.687 52.3509 773.38C66.7243 767.073 84.0309 763.92 104.271 763.92C116.591 763.92 127.518 764.947 137.051 767C146.731 769.053 154.651 771.4 160.811 774.04L158.611 816.06H156.631C152.231 800.513 145.851 789.807 137.491 783.94C129.131 777.927 119.304 774.92 108.011 774.92C97.1576 774.92 87.8443 777.633 80.0709 783.06C72.4443 788.487 66.5776 796.26 62.4709 806.38C58.3643 816.5 56.3109 828.747 56.3109 843.12C56.3109 857.493 58.2176 869.887 62.0309 880.3C65.8443 890.567 71.2709 898.56 78.3109 904.28C85.4976 909.853 94.0776 912.787 104.051 913.08C115.931 913.08 125.391 911.32 132.431 907.8C139.471 904.28 144.971 898.413 148.931 890.2C152.891 881.84 156.191 870.693 158.831 856.76H160.591ZM273.884 761.72L350.004 919.68H297.204L254.744 818.04L273.884 761.72ZM226.584 904.94C225.264 907.873 224.971 910.367 225.704 912.42C226.437 914.473 227.684 916.087 229.444 917.26C231.351 918.287 233.184 918.8 234.944 918.8H236.924V921H187.864V918.8C187.864 918.8 188.231 918.8 188.964 918.8C189.551 918.8 189.844 918.8 189.844 918.8C193.217 918.8 196.664 917.773 200.184 915.72C203.851 913.52 206.857 909.927 209.204 904.94H226.584ZM273.884 761.72V796.04L219.764 920.34H201.944L259.364 794.5C260.097 793.18 261.051 791.127 262.224 788.34C263.544 785.407 264.864 782.253 266.184 778.88C267.651 775.507 268.897 772.28 269.924 769.2C271.097 766.12 271.757 763.627 271.904 761.72H273.884ZM291.924 873.48V884.48H229.664V873.48H291.924ZM290.824 904.94H342.744C345.237 909.927 348.244 913.52 351.764 915.72C355.284 917.773 358.731 918.8 362.104 918.8C362.104 918.8 362.397 918.8 362.984 918.8C363.571 918.8 363.864 918.8 363.864 918.8V921H280.484V918.8H282.464C285.397 918.8 287.964 917.627 290.164 915.28C292.511 912.787 292.731 909.34 290.824 904.94ZM443.884 767H468.524C483.191 767 494.851 768.98 503.504 772.94C512.157 776.753 518.464 781.813 522.424 788.12C526.531 794.427 528.804 801.393 529.244 809.02C529.684 817.087 528.437 824.42 525.504 831.02C522.717 837.62 518.684 843.12 513.404 847.52C508.271 851.92 502.404 855.073 495.804 856.98C489.204 858.74 482.311 859.033 475.124 857.86C467.937 856.54 460.971 853.46 454.224 848.62V846.42C454.224 846.42 454.884 846.347 456.204 846.2C457.671 845.907 459.504 845.32 461.704 844.44C463.904 843.56 466.177 842.24 468.524 840.48C471.017 838.72 473.364 836.227 475.564 833C477.764 829.627 479.451 825.447 480.624 820.46C481.211 818.26 481.577 815.987 481.724 813.64C482.017 811.293 482.091 809.167 481.944 807.26C481.651 798.313 479.084 791.2 474.244 785.92C469.551 780.64 462.951 778 454.444 778H446.084C446.084 778 445.864 777.12 445.424 775.36C445.131 773.453 444.764 771.62 444.324 769.86C444.031 767.953 443.884 767 443.884 767ZM446.744 767V921H401.644V767H446.744ZM402.304 904.94V921H384.704V918.8C384.997 918.8 385.511 918.8 386.244 918.8C386.977 918.8 387.417 918.8 387.564 918.8C391.377 918.8 394.604 917.48 397.244 914.84C400.031 912.053 401.497 908.753 401.644 904.94H402.304ZM402.304 783.06H401.644C401.644 779.247 400.251 776.02 397.464 773.38C394.677 770.593 391.377 769.2 387.564 769.2C387.417 769.2 386.977 769.2 386.244 769.2C385.657 769.2 385.217 769.2 384.924 769.2L384.704 767H402.304V783.06ZM446.084 904.94H446.744C446.891 908.753 448.284 912.053 450.924 914.84C453.711 917.48 457.011 918.8 460.824 918.8C461.117 918.8 461.631 918.8 462.364 918.8C463.097 918.8 463.537 918.8 463.684 918.8V921H446.084V904.94ZM617.376 761.72L693.496 919.68H640.696L598.236 818.04L617.376 761.72ZM570.076 904.94C568.756 907.873 568.463 910.367 569.196 912.42C569.93 914.473 571.176 916.087 572.936 917.26C574.843 918.287 576.676 918.8 578.436 918.8H580.416V921H531.356V918.8C531.356 918.8 531.723 918.8 532.456 918.8C533.043 918.8 533.336 918.8 533.336 918.8C536.71 918.8 540.156 917.773 543.676 915.72C547.343 913.52 550.35 909.927 552.696 904.94H570.076ZM617.376 761.72V796.04L563.256 920.34H545.436L602.856 794.5C603.59 793.18 604.543 791.127 605.716 788.34C607.036 785.407 608.356 782.253 609.676 778.88C611.143 775.507 612.39 772.28 613.416 769.2C614.59 766.12 615.25 763.627 615.396 761.72H617.376ZM635.416 873.48V884.48H573.156V873.48H635.416ZM634.316 904.94H686.236C688.73 909.927 691.736 913.52 695.256 915.72C698.776 917.773 702.223 918.8 705.596 918.8C705.596 918.8 705.89 918.8 706.476 918.8C707.063 918.8 707.356 918.8 707.356 918.8V921H623.976V918.8H625.956C628.89 918.8 631.456 917.627 633.656 915.28C636.003 912.787 636.223 909.34 634.316 904.94ZM787.596 767H814.216C820.816 767 827.563 767.587 834.456 768.76C841.349 769.933 847.656 772.06 853.376 775.14C859.096 778.073 863.716 782.253 867.236 787.68C870.756 793.107 872.516 800.073 872.516 808.58C872.516 814.153 871.489 819.947 869.436 825.96C867.383 831.827 863.789 837.033 858.656 841.58C853.669 845.98 846.556 848.913 837.316 850.38C843.476 852.14 848.829 855.147 853.376 859.4C857.923 863.653 861.516 867.98 864.156 872.38C864.449 872.82 865.183 874.067 866.356 876.12C867.529 878.173 868.996 880.74 870.756 883.82C872.663 886.753 874.643 889.833 876.696 893.06C878.749 896.287 880.803 899.293 882.856 902.08C886.229 906.627 889.163 910.073 891.656 912.42C894.149 914.767 896.643 916.38 899.136 917.26C901.776 918.14 904.856 918.653 908.376 918.8V921H880.876C872.076 921 863.936 920.487 856.456 919.46C848.976 918.433 842.229 916.16 836.216 912.64C830.349 909.12 825.143 903.547 820.596 895.92C818.983 893.28 817.663 890.64 816.636 888C815.609 885.36 814.729 882.793 813.996 880.3C813.263 877.807 812.603 875.46 812.016 873.26C811.576 870.913 811.136 868.713 810.696 866.66C810.256 864.46 809.743 862.407 809.156 860.5C807.689 855.22 805.929 851.627 803.876 849.72C801.823 847.813 799.769 846.493 797.716 845.76V843.56C798.303 843.56 798.963 843.56 799.696 843.56C800.429 843.56 800.943 843.56 801.236 843.56C805.343 843.56 809.009 842.607 812.236 840.7C815.463 838.793 818.176 835.86 820.376 831.9C822.576 827.94 824.043 822.807 824.776 816.5C824.923 815.327 825.069 814.08 825.216 812.76C825.363 811.293 825.363 809.533 825.216 807.48C824.629 796.627 821.916 789.073 817.076 784.82C812.383 780.567 806.736 778.44 800.136 778.44C799.403 778.44 798.449 778.44 797.276 778.44C796.103 778.44 794.856 778.44 793.536 778.44C792.216 778.44 790.969 778.44 789.796 778.44C789.796 778.44 789.576 777.487 789.136 775.58C788.843 773.673 788.476 771.767 788.036 769.86C787.743 767.953 787.596 767 787.596 767ZM790.456 767V921H745.136V767H790.456ZM745.796 904.94V921H728.196V918.8C728.489 918.8 729.003 918.8 729.736 918.8C730.469 918.8 730.909 918.8 731.056 918.8C734.869 918.8 738.096 917.48 740.736 914.84C743.523 912.053 744.989 908.753 745.136 904.94H745.796ZM745.796 783.06H745.136C744.989 779.247 743.523 776.02 740.736 773.38C738.096 770.593 734.869 769.2 731.056 769.2C730.909 769.2 730.469 769.2 729.736 769.2C729.003 769.2 728.489 769.2 728.196 769.2V767H745.796V783.06ZM789.796 904.94H790.456C790.456 908.753 791.849 912.053 794.636 914.84C797.423 917.48 800.723 918.8 804.536 918.8C804.829 918.8 805.269 918.8 805.856 918.8C806.589 918.8 807.029 918.8 807.176 918.8V921H789.796V904.94ZM994.169 761.72L1070.29 919.68H1017.49L975.029 818.04L994.169 761.72ZM946.869 904.94C945.549 907.873 945.256 910.367 945.989 912.42C946.723 914.473 947.969 916.087 949.729 917.26C951.636 918.287 953.469 918.8 955.229 918.8H957.209V921H908.149V918.8C908.149 918.8 908.516 918.8 909.249 918.8C909.836 918.8 910.129 918.8 910.129 918.8C913.503 918.8 916.949 917.773 920.469 915.72C924.136 913.52 927.143 909.927 929.489 904.94H946.869ZM994.169 761.72V796.04L940.049 920.34H922.229L979.649 794.5C980.383 793.18 981.336 791.127 982.509 788.34C983.829 785.407 985.149 782.253 986.469 778.88C987.936 775.507 989.183 772.28 990.209 769.2C991.383 766.12 992.043 763.627 992.189 761.72H994.169ZM1012.21 873.48V884.48H949.949V873.48H1012.21ZM1011.11 904.94H1063.03C1065.52 909.927 1068.53 913.52 1072.05 915.72C1075.57 917.773 1079.02 918.8 1082.39 918.8C1082.39 918.8 1082.68 918.8 1083.27 918.8C1083.86 918.8 1084.15 918.8 1084.15 918.8V921H1000.77V918.8H1002.75C1005.68 918.8 1008.25 917.627 1010.45 915.28C1012.8 912.787 1013.02 909.34 1011.11 904.94ZM1189.63 763.92C1208.55 763.92 1224.83 767.147 1238.47 773.6C1252.26 779.907 1262.82 789 1270.15 800.88C1277.48 812.76 1281.15 827.133 1281.15 844C1281.15 860.72 1277.48 875.093 1270.15 887.12C1262.82 899 1252.26 908.167 1238.47 914.62C1224.83 920.927 1208.55 924.08 1189.63 924.08C1170.71 924.08 1154.43 920.927 1140.79 914.62C1127.15 908.167 1116.66 899 1109.33 887.12C1102 875.24 1098.33 860.867 1098.33 844C1098.33 827.28 1102 812.98 1109.33 801.1C1116.66 789.073 1127.15 779.907 1140.79 773.6C1154.43 767.147 1170.71 763.92 1189.63 763.92ZM1189.63 913.08C1198.72 913.08 1206.42 910.367 1212.73 904.94C1219.18 899.367 1224.1 891.447 1227.47 881.18C1230.84 870.913 1232.53 858.52 1232.53 844C1232.53 829.48 1230.84 817.087 1227.47 806.82C1224.1 796.553 1219.18 788.707 1212.73 783.28C1206.42 777.707 1198.72 774.92 1189.63 774.92C1180.68 774.92 1172.98 777.707 1166.53 783.28C1160.22 788.707 1155.38 796.553 1152.01 806.82C1148.64 817.087 1146.95 829.48 1146.95 844C1146.95 858.52 1148.64 870.913 1152.01 881.18C1155.38 891.447 1160.22 899.367 1166.53 904.94C1172.98 910.367 1180.68 913.08 1189.63 913.08ZM1184.57 748.96C1186.62 744.12 1189.7 739.06 1193.81 733.78C1197.92 728.5 1202.24 723.587 1206.79 719.04C1211.34 714.493 1215.22 710.827 1218.45 708.04C1223.88 710.387 1227.98 713.393 1230.77 717.06C1233.7 720.58 1235.9 724.907 1237.37 730.04C1232.68 733.12 1227.32 736.127 1221.31 739.06C1215.44 741.847 1209.43 744.267 1203.27 746.32C1197.26 748.373 1191.54 749.767 1186.11 750.5L1184.57 748.96Z" fill="#252525"/>
<path d="M384.062 568.562L373.984 542L364.375 568.562H384.062ZM401.484 592H392.93L386.289 574.578H362.305L355.977 592H347.969L369.961 534.734H378.125L401.484 592ZM440.852 592.977C432.622 592.977 425.943 590.281 420.812 584.891C415.708 579.5 413.156 572.326 413.156 563.367C413.156 554.383 415.682 547.208 420.734 541.844C425.786 536.453 432.414 533.758 440.617 533.758C447.518 533.758 453.247 535.424 457.805 538.758C462.388 542.065 464.953 546.505 465.5 552.078H457.648C457.336 548.38 455.669 545.49 452.648 543.406C449.628 541.297 445.643 540.242 440.695 540.242C434.784 540.242 430.018 542.26 426.398 546.297C422.805 550.333 421.008 556.023 421.008 563.367C421.008 570.685 422.831 576.375 426.477 580.438C430.122 584.474 434.888 586.492 440.773 586.492C449.029 586.492 455.161 583.771 459.172 578.328V569.617H444.055V562.781H466.516V592H461.164L459.172 585.984C455.292 590.646 449.185 592.977 440.852 592.977ZM528.773 592H486.078V534.734H527.445V541.531H493.656V559.031H525.258V565.828H493.656V585.203H528.773V592ZM519.477 531.102H511.508L507.094 524.461L502.68 531.102H494.711L503.344 520.125H510.844L519.477 531.102ZM592.398 592H584.625L554.625 546.805V592H547.438V534.734H555.172L585.172 579.93V534.734H592.398V592ZM637.234 592.977C629.135 592.977 622.664 590.32 617.82 585.008C613.003 579.669 610.594 572.456 610.594 563.367C610.594 554.279 613.003 547.078 617.82 541.766C622.664 536.427 629.135 533.758 637.234 533.758C643.458 533.758 648.758 535.438 653.133 538.797C657.508 542.156 659.969 546.583 660.516 552.078H652.703C652.391 548.458 650.815 545.581 647.977 543.445C645.164 541.31 641.609 540.242 637.312 540.242C631.505 540.242 626.909 542.247 623.523 546.258C620.138 550.242 618.445 555.945 618.445 563.367C618.445 570.763 620.125 576.466 623.484 580.477C626.844 584.487 631.401 586.492 637.156 586.492C641.635 586.492 645.255 585.398 648.016 583.211C650.776 581.023 652.339 577.898 652.703 573.836H660.516C659.969 579.93 657.573 584.643 653.328 587.977C649.083 591.31 643.719 592.977 637.234 592.977ZM687.617 592H680V534.734H687.617V592ZM738.938 568.562L728.859 542L719.25 568.562H738.938ZM756.359 592H747.805L741.164 574.578H717.18L710.852 592H702.844L724.836 534.734H733L756.359 592ZM799.938 534.734H818.102C837.555 534.734 847.281 544.174 847.281 563.055C847.281 582.352 837.555 592 818.102 592H799.938V534.734ZM807.516 585.203H817.945C826.253 585.203 831.917 583.276 834.938 579.422C837.958 575.542 839.469 570.086 839.469 563.055C839.469 556.206 837.958 550.906 834.938 547.156C831.943 543.406 826.279 541.531 817.945 541.531H807.516V585.203ZM908.445 592H865.75V534.734H907.117V541.531H873.328V559.031H904.93V565.828H873.328V585.203H908.445V592ZM194.447 644C200.74 644 206.18 645.147 210.767 647.44C215.354 649.68 218.874 652.907 221.327 657.12C223.834 661.28 225.087 666.24 225.087 672C225.087 677.76 223.834 682.747 221.327 686.96C218.874 691.12 215.354 694.347 210.767 696.64C206.18 698.88 200.74 700 194.447 700H175.407L175.327 696.64C176.874 696.64 178.474 696.64 180.127 696.64C181.834 696.64 183.487 696.64 185.087 696.64C186.687 696.64 188.1 696.64 189.327 696.64C190.607 696.64 191.62 696.64 192.367 696.64C193.114 696.64 193.487 696.64 193.487 696.64C197.327 696.64 200.634 695.653 203.407 693.68C206.18 691.653 208.314 688.8 209.807 685.12C211.3 681.44 212.047 677.067 212.047 672C212.047 666.933 211.3 662.56 209.807 658.88C208.314 655.2 206.18 652.373 203.407 650.4C200.634 648.373 197.327 647.36 193.487 647.36C193.487 647.36 193.087 647.36 192.287 647.36C191.54 647.36 190.5 647.36 189.167 647.36C187.834 647.36 186.34 647.36 184.687 647.36C183.034 647.36 181.327 647.36 179.567 647.36C177.807 647.36 176.127 647.36 174.527 647.36V644H194.447ZM183.567 644V700H171.567V644H183.567ZM171.807 694.16V700H165.407V699.2C165.407 699.2 165.567 699.2 165.887 699.2C166.26 699.2 166.447 699.2 166.447 699.2C167.834 699.2 169.007 698.72 169.967 697.76C170.98 696.747 171.514 695.547 171.567 694.16H171.807ZM171.807 649.84H171.567C171.567 648.453 171.06 647.28 170.047 646.32C169.034 645.307 167.834 644.8 166.447 644.8C166.447 644.8 166.287 644.8 165.967 644.8C165.647 644.8 165.487 644.8 165.487 644.8L165.407 644H171.807V649.84ZM256.254 644V700H244.254V644H256.254ZM277.374 696.56L279.294 700H256.014V696.56H277.374ZM274.414 670.72V674.08H256.014V670.72H274.414ZM278.334 644V647.44H256.014V644H278.334ZM283.214 683.6L279.534 700H263.854L266.734 696.56C269.401 696.56 271.748 696.053 273.774 695.04C275.801 693.973 277.534 692.48 278.974 690.56C280.414 688.587 281.561 686.267 282.414 683.6H283.214ZM274.414 673.92V681.6H273.614V680.96C273.614 678.987 272.974 677.36 271.694 676.08C270.414 674.8 268.788 674.133 266.814 674.08V673.92H274.414ZM274.414 663.2V670.88H266.814V670.72C268.788 670.667 270.414 670 271.694 668.72C272.974 667.387 273.614 665.733 273.614 663.76V663.2H274.414ZM278.334 647.2V656.56H277.534V655.6C277.534 653.147 276.788 651.173 275.294 649.68C273.854 648.187 271.881 647.413 269.374 647.36V647.2H278.334ZM278.334 642.56V644.88L268.574 644C269.748 644 270.974 643.92 272.254 643.76C273.588 643.6 274.814 643.413 275.934 643.2C277.054 642.987 277.854 642.773 278.334 642.56ZM244.494 694.16V700H238.094V699.2C238.094 699.2 238.254 699.2 238.574 699.2C238.948 699.2 239.134 699.2 239.134 699.2C240.521 699.2 241.694 698.72 242.654 697.76C243.668 696.747 244.201 695.547 244.254 694.16H244.494ZM244.494 649.84H244.254C244.201 648.453 243.668 647.28 242.654 646.32C241.694 645.307 240.521 644.8 239.134 644.8C239.134 644.8 238.948 644.8 238.574 644.8C238.254 644.8 238.094 644.8 238.094 644.8V644H244.494V649.84ZM315.441 642.88C316.508 642.88 317.815 642.933 319.361 643.04C320.961 643.147 322.588 643.307 324.241 643.52C325.948 643.68 327.415 643.867 328.641 644.08C329.921 644.24 330.801 644.427 331.281 644.64L330.321 655.44H329.521C329.521 652.667 328.481 650.453 326.401 648.8C324.375 647.093 321.655 646.24 318.241 646.24C315.148 646.24 312.641 646.987 310.721 648.48C308.855 649.973 307.868 651.787 307.761 653.92C307.708 655.52 308.215 656.907 309.281 658.08C310.348 659.253 311.708 660.347 313.361 661.36L328.641 671.28C331.095 672.667 332.935 674.48 334.161 676.72C335.441 678.96 336.001 681.573 335.841 684.56C335.575 689.787 333.575 693.867 329.841 696.8C326.108 699.68 321.041 701.12 314.641 701.12C312.295 701.12 310.001 700.907 307.761 700.48C305.575 700.107 303.628 699.573 301.921 698.88C300.215 698.133 298.855 697.253 297.841 696.24C297.415 695.067 297.228 693.653 297.281 692C297.335 690.347 297.575 688.667 298.001 686.96C298.481 685.253 299.068 683.84 299.761 682.72H300.481C300.268 685.44 300.748 687.973 301.921 690.32C303.148 692.613 304.908 694.453 307.201 695.84C309.548 697.173 312.321 697.813 315.521 697.76C319.041 697.707 321.761 696.827 323.681 695.12C325.601 693.36 326.561 691.253 326.561 688.8C326.561 687.147 326.055 685.653 325.041 684.32C324.081 682.987 322.481 681.707 320.241 680.48L306.241 671.2C303.415 669.6 301.361 667.547 300.081 665.04C298.801 662.533 298.295 659.813 298.561 656.88C298.828 654.107 299.655 651.68 301.041 649.6C302.428 647.467 304.321 645.813 306.721 644.64C309.175 643.467 312.081 642.88 315.441 642.88ZM331.361 643.68L331.201 645.36H321.761V643.68H331.361ZM368.583 644V700H356.583V644H368.583ZM389.703 696.56L391.623 700H368.343V696.56H389.703ZM386.743 670.72V674.08H368.343V670.72H386.743ZM390.663 644V647.44H368.343V644H390.663ZM395.543 683.6L391.863 700H376.183L379.063 696.56C381.729 696.56 384.076 696.053 386.103 695.04C388.129 693.973 389.863 692.48 391.303 690.56C392.743 688.587 393.889 686.267 394.743 683.6H395.543ZM386.743 673.92V681.6H385.943V680.96C385.943 678.987 385.303 677.36 384.023 676.08C382.743 674.8 381.116 674.133 379.143 674.08V673.92H386.743ZM386.743 663.2V670.88H379.143V670.72C381.116 670.667 382.743 670 384.023 668.72C385.303 667.387 385.943 665.733 385.943 663.76V663.2H386.743ZM390.663 647.2V656.56H389.863V655.6C389.863 653.147 389.116 651.173 387.623 649.68C386.183 648.187 384.209 647.413 381.703 647.36V647.2H390.663ZM390.663 642.56V644.88L380.903 644C382.076 644 383.303 643.92 384.583 643.76C385.916 643.6 387.143 643.413 388.263 643.2C389.383 642.987 390.183 642.773 390.663 642.56ZM356.823 694.16V700H350.423V699.2C350.423 699.2 350.583 699.2 350.903 699.2C351.276 699.2 351.463 699.2 351.463 699.2C352.849 699.2 354.023 698.72 354.983 697.76C355.996 696.747 356.529 695.547 356.583 694.16H356.823ZM356.823 649.84H356.583C356.529 648.453 355.996 647.28 354.983 646.32C354.023 645.307 352.849 644.8 351.463 644.8C351.463 644.8 351.276 644.8 350.903 644.8C350.583 644.8 350.423 644.8 350.423 644.8V644H356.823V649.84ZM413.937 642.8L464.977 691.44L465.937 701.12L414.897 652.56L413.937 642.8ZM414.337 694.32V700H407.697V699.2C407.697 699.2 407.937 699.2 408.417 699.2C408.897 699.2 409.164 699.2 409.217 699.2C410.55 699.2 411.697 698.72 412.657 697.76C413.617 696.8 414.097 695.653 414.097 694.32H414.337ZM425.537 694.32C425.537 695.653 426.017 696.8 426.977 697.76C427.937 698.72 429.084 699.2 430.417 699.2C430.47 699.2 430.737 699.2 431.217 699.2C431.697 699.2 431.937 699.2 431.937 699.2V700H425.297V694.32H425.537ZM413.937 642.8L425.457 655.04L425.537 700H414.097V652.8C414.097 649.813 413.937 647.413 413.617 645.6C413.297 643.733 413.137 642.8 413.137 642.8H413.937ZM465.697 644V690.88C465.697 692.853 465.777 694.64 465.937 696.24C466.097 697.787 466.257 698.987 466.417 699.84C466.577 700.693 466.657 701.12 466.657 701.12H465.937L454.337 688.16V644H465.697ZM472.097 644V644.8C472.097 644.8 471.857 644.8 471.377 644.8C470.897 644.8 470.657 644.8 470.657 644.8C469.324 644.8 468.177 645.28 467.217 646.24C466.257 647.147 465.75 648.293 465.697 649.68H465.457V644H472.097ZM447.857 644H454.497V649.68H454.337C454.284 648.293 453.777 647.147 452.817 646.24C451.91 645.28 450.764 644.8 449.377 644.8C449.377 644.8 449.137 644.8 448.657 644.8C448.177 644.8 447.91 644.8 447.857 644.8V644ZM511.956 701.6L485.476 644.48H499.796L516.916 686.16L511.956 701.6ZM511.956 701.6L511.716 691.84L532.036 644.24H537.796L516.596 691.12C516.489 691.44 516.222 692.053 515.796 692.96C515.422 693.813 514.996 694.8 514.516 695.92C514.036 697.04 513.609 698.133 513.236 699.2C512.916 700.213 512.729 701.013 512.676 701.6H511.956ZM529.636 649.84C530.329 648.24 530.249 647.013 529.396 646.16C528.542 645.253 527.609 644.8 526.596 644.8H525.876V644H542.996V644.8C542.996 644.8 542.862 644.8 542.596 644.8C542.382 644.8 542.276 644.8 542.276 644.8C541.102 644.8 539.849 645.2 538.516 646C537.236 646.747 536.169 648.027 535.316 649.84H529.636ZM502.036 649.84H487.956C487.102 648.027 486.009 646.747 484.676 646C483.396 645.2 482.142 644.8 480.916 644.8C480.916 644.8 480.809 644.8 480.596 644.8C480.382 644.8 480.276 644.8 480.276 644.8V644H505.716V644.8H504.996C503.982 644.8 503.076 645.253 502.276 646.16C501.529 647.013 501.449 648.24 502.036 649.84ZM581.735 642.88C588.135 642.88 593.682 644.08 598.375 646.48C603.122 648.827 606.775 652.16 609.335 656.48C611.948 660.8 613.255 665.973 613.255 672C613.255 677.973 611.948 683.147 609.335 687.52C606.775 691.84 603.122 695.2 598.375 697.6C593.682 699.947 588.135 701.12 581.735 701.12C575.335 701.12 569.762 699.947 565.015 697.6C560.322 695.2 556.695 691.84 554.135 687.52C551.575 683.2 550.295 678.027 550.295 672C550.295 666.027 551.575 660.88 554.135 656.56C556.695 652.187 560.322 648.827 565.015 646.48C569.762 644.08 575.335 642.88 581.735 642.88ZM581.735 697.76C585.522 697.76 588.775 696.72 591.495 694.64C594.215 692.507 596.322 689.52 597.815 685.68C599.308 681.84 600.055 677.28 600.055 672C600.055 666.72 599.308 662.16 597.815 658.32C596.322 654.48 594.215 651.52 591.495 649.44C588.775 647.307 585.522 646.24 581.735 646.24C578.002 646.24 574.748 647.307 571.975 649.44C569.255 651.52 567.148 654.48 565.655 658.32C564.162 662.16 563.415 666.72 563.415 672C563.415 677.28 564.162 681.84 565.655 685.68C567.148 689.52 569.255 692.507 571.975 694.64C574.748 696.72 578.002 697.76 581.735 697.76ZM644.645 644V700H632.645V644H644.645ZM665.765 696.56L667.685 700H644.405V696.56H665.765ZM671.605 683.6L667.925 700H652.245L655.125 696.56C657.792 696.56 660.138 696.053 662.165 695.04C664.192 693.973 665.925 692.48 667.365 690.56C668.805 688.587 669.952 686.267 670.805 683.6H671.605ZM632.885 694.16V700H626.485V699.2C626.485 699.2 626.645 699.2 626.965 699.2C627.338 699.2 627.525 699.2 627.525 699.2C628.912 699.2 630.085 698.72 631.045 697.76C632.058 696.747 632.592 695.547 632.645 694.16H632.885ZM632.885 649.84H632.645C632.592 648.453 632.058 647.28 631.045 646.32C630.085 645.307 628.912 644.8 627.525 644.8C627.525 644.8 627.338 644.8 626.965 644.8C626.645 644.8 626.485 644.8 626.485 644.8V644H632.885V649.84ZM644.405 649.84V644H650.805V644.8C650.752 644.8 650.565 644.8 650.245 644.8C649.925 644.8 649.765 644.8 649.765 644.8C648.378 644.8 647.178 645.307 646.165 646.32C645.205 647.28 644.698 648.453 644.645 649.84H644.405ZM701.659 701.6L675.179 644.48H689.499L706.619 686.16L701.659 701.6ZM701.659 701.6L701.419 691.84L721.739 644.24H727.499L706.299 691.12C706.192 691.44 705.925 692.053 705.499 692.96C705.125 693.813 704.699 694.8 704.219 695.92C703.739 697.04 703.312 698.133 702.939 699.2C702.619 700.213 702.432 701.013 702.379 701.6H701.659ZM719.339 649.84C720.032 648.24 719.952 647.013 719.099 646.16C718.245 645.253 717.312 644.8 716.299 644.8H715.579V644H732.699V644.8C732.699 644.8 732.565 644.8 732.299 644.8C732.085 644.8 731.979 644.8 731.979 644.8C730.805 644.8 729.552 645.2 728.219 646C726.939 646.747 725.872 648.027 725.019 649.84H719.339ZM691.739 649.84H677.659C676.805 648.027 675.712 646.747 674.379 646C673.099 645.2 671.845 644.8 670.619 644.8C670.619 644.8 670.512 644.8 670.299 644.8C670.085 644.8 669.979 644.8 669.979 644.8V644H695.419V644.8H694.699C693.685 644.8 692.779 645.253 691.979 646.16C691.232 647.013 691.152 648.24 691.739 649.84ZM759.942 644V700H747.942V644H759.942ZM748.182 694.16V700H741.782V699.2C741.782 699.2 741.942 699.2 742.262 699.2C742.635 699.2 742.822 699.2 742.822 699.2C744.209 699.2 745.382 698.72 746.342 697.76C747.355 696.747 747.889 695.547 747.942 694.16H748.182ZM748.182 649.84H747.942C747.889 648.453 747.355 647.28 746.342 646.32C745.382 645.307 744.209 644.8 742.822 644.8C742.822 644.8 742.635 644.8 742.262 644.8C741.942 644.8 741.782 644.8 741.782 644.8V644H748.182V649.84ZM759.702 694.16H759.942C759.995 695.547 760.502 696.747 761.462 697.76C762.475 698.72 763.675 699.2 765.062 699.2C765.062 699.2 765.222 699.2 765.542 699.2C765.862 699.2 766.049 699.2 766.102 699.2V700H759.702V694.16ZM759.702 649.84V644H766.102V644.8C766.049 644.8 765.862 644.8 765.542 644.8C765.222 644.8 765.062 644.8 765.062 644.8C763.675 644.8 762.475 645.307 761.462 646.32C760.502 647.28 759.995 648.453 759.942 649.84H759.702ZM839.759 642.88L840.399 651.6L816.639 692.8C816.639 692.8 816.373 693.28 815.839 694.24C815.306 695.147 814.773 696.267 814.239 697.6C813.759 698.933 813.519 700.267 813.519 701.6H812.719L809.599 694.64L839.759 642.88ZM785.519 694.16V700H776.639V699.2C776.693 699.2 776.933 699.2 777.359 699.2C777.733 699.2 777.919 699.2 777.919 699.2C779.359 699.2 780.639 698.773 781.759 697.92C782.879 697.013 783.546 695.76 783.759 694.16H785.519ZM789.039 695.44C789.039 695.493 789.039 695.547 789.039 695.6C789.039 695.653 789.039 695.733 789.039 695.84C789.039 696.693 789.333 697.493 789.919 698.24C790.559 698.933 791.306 699.28 792.159 699.28H793.359V700H788.479V695.44H789.039ZM790.399 642.88H791.119L793.919 650.88L788.559 700H782.959L790.399 642.88ZM791.119 642.88L817.279 685.84L812.719 701.6L789.039 661.84L791.119 642.88ZM840.479 642.88L848.079 700H835.199L831.199 663.2L839.759 642.88H840.479ZM845.599 694.16H847.279C847.546 695.76 848.239 697.013 849.359 697.92C850.479 698.773 851.733 699.2 853.119 699.2C853.119 699.2 853.333 699.2 853.759 699.2C854.186 699.2 854.399 699.2 854.399 699.2V700H845.599V694.16ZM834.719 695.44H835.279V700H830.399V699.28H831.599C832.506 699.28 833.253 698.933 833.839 698.24C834.426 697.493 834.719 696.693 834.719 695.84C834.719 695.733 834.719 695.653 834.719 695.6C834.719 695.547 834.719 695.493 834.719 695.44ZM883.129 644V700H871.129V644H883.129ZM904.249 696.56L906.169 700H882.889V696.56H904.249ZM901.289 670.72V674.08H882.889V670.72H901.289ZM905.209 644V647.44H882.889V644H905.209ZM910.089 683.6L906.409 700H890.729L893.609 696.56C896.276 696.56 898.623 696.053 900.649 695.04C902.676 693.973 904.409 692.48 905.849 690.56C907.289 688.587 908.436 686.267 909.289 683.6H910.089ZM901.289 673.92V681.6H900.489V680.96C900.489 678.987 899.849 677.36 898.569 676.08C897.289 674.8 895.663 674.133 893.689 674.08V673.92H901.289ZM901.289 663.2V670.88H893.689V670.72C895.663 670.667 897.289 670 898.569 668.72C899.849 667.387 900.489 665.733 900.489 663.76V663.2H901.289ZM905.209 647.2V656.56H904.409V655.6C904.409 653.147 903.663 651.173 902.169 649.68C900.729 648.187 898.756 647.413 896.249 647.36V647.2H905.209ZM905.209 642.56V644.88L895.449 644C896.623 644 897.849 643.92 899.129 643.76C900.463 643.6 901.689 643.413 902.809 643.2C903.929 642.987 904.729 642.773 905.209 642.56ZM871.369 694.16V700H864.969V699.2C864.969 699.2 865.129 699.2 865.449 699.2C865.823 699.2 866.009 699.2 866.009 699.2C867.396 699.2 868.569 698.72 869.529 697.76C870.543 696.747 871.076 695.547 871.129 694.16H871.369ZM871.369 649.84H871.129C871.076 648.453 870.543 647.28 869.529 646.32C868.569 645.307 867.396 644.8 866.009 644.8C866.009 644.8 865.823 644.8 865.449 644.8C865.129 644.8 864.969 644.8 864.969 644.8V644H871.369V649.84ZM928.484 642.8L979.524 691.44L980.484 701.12L929.444 652.56L928.484 642.8ZM928.884 694.32V700H922.244V699.2C922.244 699.2 922.484 699.2 922.964 699.2C923.444 699.2 923.71 699.2 923.764 699.2C925.097 699.2 926.244 698.72 927.204 697.76C928.164 696.8 928.644 695.653 928.644 694.32H928.884ZM940.084 694.32C940.084 695.653 940.564 696.8 941.524 697.76C942.484 698.72 943.63 699.2 944.964 699.2C945.017 699.2 945.284 699.2 945.764 699.2C946.244 699.2 946.484 699.2 946.484 699.2V700H939.844V694.32H940.084ZM928.484 642.8L940.004 655.04L940.084 700H928.644V652.8C928.644 649.813 928.484 647.413 928.164 645.6C927.844 643.733 927.684 642.8 927.684 642.8H928.484ZM980.244 644V690.88C980.244 692.853 980.324 694.64 980.484 696.24C980.644 697.787 980.804 698.987 980.964 699.84C981.124 700.693 981.204 701.12 981.204 701.12H980.484L968.884 688.16V644H980.244ZM986.644 644V644.8C986.644 644.8 986.404 644.8 985.924 644.8C985.444 644.8 985.204 644.8 985.204 644.8C983.87 644.8 982.724 645.28 981.764 646.24C980.804 647.147 980.297 648.293 980.244 649.68H980.004V644H986.644ZM962.404 644H969.044V649.68H968.884C968.83 648.293 968.324 647.147 967.364 646.24C966.457 645.28 965.31 644.8 963.924 644.8C963.924 644.8 963.684 644.8 963.204 644.8C962.724 644.8 962.457 644.8 962.404 644.8V644ZM1029.78 644.24V700H1017.78V644.24H1029.78ZM1049.38 643.92V647.28H998.183V643.92H1049.38ZM1049.38 647.04V656.48L1048.58 656.4V655.52C1048.58 653.013 1047.84 651.04 1046.34 649.6C1044.9 648.107 1042.93 647.333 1040.42 647.28V647.04H1049.38ZM1049.38 642.48V644.8L1039.62 643.92C1040.8 643.92 1042.02 643.84 1043.3 643.68C1044.64 643.52 1045.86 643.333 1046.98 643.12C1048.1 642.907 1048.9 642.693 1049.38 642.48ZM1018.02 694.16V700H1011.62V699.2C1011.62 699.2 1011.78 699.2 1012.1 699.2C1012.48 699.2 1012.66 699.2 1012.66 699.2C1014.05 699.2 1015.22 698.72 1016.18 697.76C1017.2 696.747 1017.73 695.547 1017.78 694.16H1018.02ZM1029.54 694.16H1029.78C1029.84 695.547 1030.34 696.747 1031.3 697.76C1032.32 698.72 1033.52 699.2 1034.9 699.2C1034.9 699.2 1035.06 699.2 1035.38 699.2C1035.76 699.2 1035.94 699.2 1035.94 699.2V700H1029.54V694.16ZM1007.06 647.04V647.28C1004.61 647.333 1002.64 648.107 1001.14 649.6C999.703 651.04 998.983 653.013 998.983 655.52V656.4L998.183 656.48V647.04H1007.06ZM998.183 642.48C998.716 642.693 999.516 642.907 1000.58 643.12C1001.7 643.333 1002.93 643.52 1004.26 643.68C1005.6 643.84 1006.82 643.92 1007.94 643.92L998.183 644.8V642.48ZM1093 642.88C1099.4 642.88 1104.95 644.08 1109.64 646.48C1114.39 648.827 1118.04 652.16 1120.6 656.48C1123.21 660.8 1124.52 665.973 1124.52 672C1124.52 677.973 1123.21 683.147 1120.6 687.52C1118.04 691.84 1114.39 695.2 1109.64 697.6C1104.95 699.947 1099.4 701.12 1093 701.12C1086.6 701.12 1081.03 699.947 1076.28 697.6C1071.59 695.2 1067.96 691.84 1065.4 687.52C1062.84 683.2 1061.56 678.027 1061.56 672C1061.56 666.027 1062.84 660.88 1065.4 656.56C1067.96 652.187 1071.59 648.827 1076.28 646.48C1081.03 644.08 1086.6 642.88 1093 642.88ZM1093 697.76C1096.79 697.76 1100.04 696.72 1102.76 694.64C1105.48 692.507 1107.59 689.52 1109.08 685.68C1110.57 681.84 1111.32 677.28 1111.32 672C1111.32 666.72 1110.57 662.16 1109.08 658.32C1107.59 654.48 1105.48 651.52 1102.76 649.44C1100.04 647.307 1096.79 646.24 1093 646.24C1089.27 646.24 1086.01 647.307 1083.24 649.44C1080.52 651.52 1078.41 654.48 1076.92 658.32C1075.43 662.16 1074.68 666.72 1074.68 672C1074.68 677.28 1075.43 681.84 1076.92 685.68C1078.41 689.52 1080.52 692.507 1083.24 694.64C1086.01 696.72 1089.27 697.76 1093 697.76Z" fill="#252525"/>
<path d="M221 445.429C193.341 465.699 150.263 487.453 127.198 498H125V248H221V445.429Z" fill="#274F80"/>
<path d="M315 410.244C313.085 408.794 311.265 407.563 309.677 406.716C301.168 402.177 266.636 402.682 236.607 432.435C232.398 436.606 227.069 440.981 221 445.429V160H315V410.244Z" fill="#2E5B7C"/>
<path d="M409 445.446C371.008 427.585 343.169 424.579 332.199 425.879C328.618 422.142 321.291 415.007 315 410.244V82H409V445.446Z" fill="#356579"/>
<path d="M504 417.135C488.51 429.196 460.624 452.095 444.807 465.213C432.114 457.174 420.121 450.675 409 445.446V173H504V417.135Z" fill="#3B7074"/>
<path d="M599 332.882C571.746 355.867 536.26 388.812 514.874 409.237C513.79 409.674 509.749 412.658 504 417.135V116H599V332.882Z" fill="#427A71"/>
<path d="M693 298.046C689.619 296.315 686.925 295.193 685.037 294.765C669.022 291.134 645.333 301.32 635.49 306.867C630.776 307.342 616.606 318.034 599 332.882V0H693V298.046Z" fill="#47856C"/>
<path d="M787 363.696C748.111 333.438 710.911 307.215 693 298.046V36H787V363.696Z" fill="#4E906A"/>
<path d="M975 385.451C948.346 396.41 906.716 419.918 881 435.307V81H975V385.451Z" fill="#5CA462"/>
<path d="M1071 414.053C1037.2 393.06 1007.13 380.497 996.837 379.484C992.632 379.071 984.836 381.407 975 385.451V50H1071V414.053Z" fill="#62AF5D"/>
<path d="M881 435.307C879.155 436.411 877.391 437.472 875.721 438.485C851.332 415.55 818.608 388.29 787 363.696V133H881V435.307Z" fill="#559A64"/>
<path d="M1167 498H1166.63C1141.45 463.791 1104.41 434.803 1071 414.053V147H1167V498Z" fill="#69BA5B"/>
</svg>
