<svg width="160" height="160" viewBox="0 0 160 160" fill="none" xmlns="http://www.w3.org/2000/svg">
<circle cx="80" cy="80" r="80" fill="#F09BBE"/>
<circle cx="80.0003" cy="79.9985" r="76.1905" fill="#2A7C4F"/>
<circle cx="79.9998" cy="79.9992" r="72.381" fill="white"/>
<path d="M148.571 80C148.571 117.871 117.871 148.571 79.9999 148.571C42.1289 148.571 11.4285 117.871 11.4285 80C11.4285 42.1291 42.1289 11.4286 79.9999 11.4286C117.871 11.4286 148.571 42.1291 148.571 80Z" fill="url(#paint0_linear_404_1338)"/>
<mask id="mask0_404_1338" style="mask-type:alpha" maskUnits="userSpaceOnUse" x="11" y="11" width="138" height="138">
<circle cx="79.9997" cy="80.0025" r="68.5714" fill="white"/>
</mask>
<g mask="url(#mask0_404_1338)">
<path d="M66.3704 82.1635C67.368 86.5811 79.374 104.311 85.2523 112.624H0.461914L2.24323 110.843C5.50896 103.064 12.6105 87.0799 14.8905 85.3698C17.1706 83.6598 19.6407 81.5697 20.5907 80.7384C22.1345 78.304 25.5072 73.1857 26.6472 72.1881C27.7872 71.1906 29.2598 70.8225 29.8536 70.7631C32.7037 66.9155 39.3539 61.7972 42.3227 59.719L42.6882 59.3681C44.4368 60.412 57.8911 74.9916 64.411 82.1635L65.4798 80.9166C65.9073 81.4866 66.2517 81.9854 66.3704 82.1635Z" fill="#2A7C4F"/>
<path d="M43.0161 53.0257V56.6482M43.0161 60.9566V56.6482M43.0161 56.6482H39.3386H47.0943" stroke="#2A7C4F"/>
<path d="M33.0599 73.7907C35.4825 71.0831 40.007 68.2686 41.9665 67.1998C33.2737 75.7501 31.4567 78.9565 30.2098 82.341C25.4003 87.1505 26.2909 86.438 25.4003 87.5068C23.465 89.8291 22.7283 93.5632 21.6595 95.7008C20.8045 97.4109 22.1939 98.729 21.6595 100.51C18.2228 105.898 18.9875 111.02 17.9188 112.623C16.1375 112.801 13.636 112.623 13.4655 112.623C13.1092 112.623 10.4373 104.785 10.4373 103.895C10.4373 103.004 15.0687 93.0288 16.85 92.3163C18.6313 91.6038 23.0846 83.4098 23.7971 82.6972C24.5096 81.9847 26.1128 80.0253 26.8253 78.6002C27.3953 77.4602 31.6349 74.0876 33.0599 73.7907Z" fill="url(#paint1_linear_404_1338)"/>
<path d="M54.079 95.8792C54.9697 95.0649 57.1072 90.3571 63.8762 86.2601L60.3136 91.0696L59.7792 93.9197C57.4635 94.0979 54.079 100.788 54.079 102.648C54.079 105.855 51.407 105.676 50.8727 108.705C50.7619 109.332 46.7756 110.902 46.9538 112.624H39.6504L41.788 108.705C41.7286 107.992 44.5312 105.142 46.9538 103.717C49.982 101.936 47.8444 101.579 54.079 95.8792Z" fill="url(#paint2_linear_404_1338)"/>
<path d="M145.714 92.5404C148.73 96.8261 146.358 96.0922 147.618 100.318C148.4 102.975 145.269 109.297 146.204 112.064H77.2869C77.3709 111.762 77.8412 110.646 79.0507 108.593C80.5626 106.027 82.7045 99.3863 84.9723 91.8399C86.7866 85.8028 89.928 78.8602 91.2719 76.1435C92.2798 74.6342 94.724 71.1629 96.4375 69.3517C98.5793 67.0878 100.721 62.8619 101.351 62.2581C101.487 62.1276 102.397 60.8388 104.92 61.2706C108.252 61.8408 109.738 65.8738 112.063 65.8738C113.65 65.8738 116.507 72.0642 121.766 71.8783C123.174 71.2706 131.963 66.5648 135.555 70.6357C137.936 73.3341 139.188 76.4873 140.158 79.6833C140.572 81.0454 142.17 85.8366 143.015 87.1436C144.761 89.842 144.932 91.4296 145.714 92.5404Z" fill="#2A7C4F"/>
<path d="M79.3967 112.064L83.7919 106.262C84.5538 105.442 84.6278 101.831 87.4839 98.1749C91.8791 92.549 90.6485 93.9555 93.6372 86.5715C94.3991 86.9818 96.1337 91.8106 96.9776 96.5926C98.2083 94.5415 100.599 90.2284 100.318 89.3845C99.9664 88.3296 98.0325 87.2748 99.7905 84.9893C101.549 82.7038 103.307 77.2537 104.537 74.9682C105.065 78.7774 103.834 84.1102 104.889 86.5715C105.944 87.5092 105.944 88.5054 110.691 89.3845C109.322 91.3239 104.788 92.6525 104.872 102.935C104.932 103.25 104.942 103.542 104.889 103.801C104.88 103.505 104.874 103.217 104.872 102.935C104.396 100.465 100.789 96.5926 99.7905 96.5926C93.2856 102.746 94.8182 97.9116 91.7033 103.449C90.1211 106.262 88.4216 111.068 88.363 112.064H79.3967Z" fill="url(#paint3_linear_404_1338)"/>
<path d="M114.383 95.0104C118.883 92.4787 123.056 87.2748 124.58 84.9893C123.876 89.3845 116.141 95.0104 118.25 95.0104C119.938 95.0104 119.54 96.8857 119.13 97.8233C117.02 96.9443 116.141 99.4056 115.613 101.339C115.191 102.887 114.148 109.134 113.679 112.064H104.01C105.592 107.434 109.882 97.542 114.383 95.0104Z" fill="url(#paint4_linear_404_1338)"/>
<path d="M53.4917 111.591C61.1107 108.82 77.1425 106.511 77.1425 106.511H80.7933H83.968C83.968 106.511 85.5711 107.489 81.9044 108.575C79.621 109.251 77.9361 108.575 70.7933 111.115C63.6504 113.654 79.3648 112.226 95.7139 117.781C112.063 123.337 73.9679 127.958 71.2695 130.171C68.5711 132.384 83.1742 132.702 89.5234 132.702C95.8726 132.702 113.218 135.986 112.698 140.162C112.016 145.643 90.7933 153.654 72.0631 150.162C53.333 146.67 52.5394 142.861 45.3965 139.845C38.2536 136.829 37.1831 134.655 39.5235 131.273C41.5808 128.301 54.4441 123.654 75.2377 122.702C83.0155 121.115 53.4917 120.48 48.8885 118.416C44.2853 116.353 45.8727 114.361 53.4917 111.591Z" fill="#0096E1"/>
<path d="M21.1109 111.432C18.9522 111.94 18.4654 113.548 18.8887 114.289L18.5712 115.876C17.4601 117.464 26.0315 126.035 30.9522 131.114C35.8728 136.194 54.1268 147.305 66.0315 150.003C77.9363 152.702 95.5553 148.416 107.143 145.718C118.73 143.019 143.968 115.559 144.127 114.289C144.285 113.019 142.381 112.86 138.73 110.638C135.079 108.416 127.778 111.432 123.968 108.733C120.159 106.035 112.857 107.305 108.254 107.305C103.651 107.305 89.3649 107.305 87.4601 105.4C85.5553 103.495 72.222 104.606 66.0315 103.813C59.841 103.019 45.8728 105.559 43.4918 105.4C41.1109 105.241 33.3331 107.464 30.9522 107.305C28.5712 107.146 23.8093 110.797 21.1109 111.432Z" fill="#334E3F"/>
<path d="M53.4915 111.59C61.1105 108.82 78.2533 104.289 78.2533 104.289H81.9041L83.4914 104.411C83.4914 104.411 79.047 106.987 76.8248 108.098C71.524 110.749 69.9994 110.955 70.4756 112.384C70.9518 113.813 79.3645 112.225 95.7137 117.781C112.063 123.336 73.9676 127.958 71.2692 130.171C68.5708 132.384 83.174 132.702 89.5232 132.702C95.8724 132.702 113.218 135.985 112.698 140.162C112.015 145.643 90.793 153.654 72.0629 150.162C53.3327 146.67 52.5391 142.86 45.3962 139.844C38.2534 136.828 37.1829 134.654 39.5232 131.273C41.5805 128.301 54.4438 123.654 75.2375 122.702C83.0153 121.114 53.4915 120.479 48.8883 118.416C44.2851 116.352 45.8725 114.361 53.4915 111.59Z" fill="#0096E1"/>
<mask id="mask1_404_1338" style="mask-type:alpha" maskUnits="userSpaceOnUse" x="38" y="104" width="75" height="48">
<path d="M53.4915 111.591C61.1105 108.82 78.2533 104.289 78.2533 104.289H81.9041L83.4914 104.411C83.4914 104.411 79.047 106.988 76.8248 108.099C71.524 110.749 69.9994 110.956 70.4756 112.384C70.9518 113.813 79.3645 112.226 95.7137 117.781C112.063 123.337 73.9676 127.958 71.2692 130.171C68.5708 132.384 83.174 132.702 89.5232 132.702C95.8724 132.702 113.218 135.986 112.698 140.162C112.015 145.643 90.793 153.654 72.0629 150.162C53.3327 146.67 52.5391 142.861 45.3962 139.845C38.2534 136.829 37.1829 134.655 39.5232 131.273C41.5805 128.301 54.4438 123.654 75.2375 122.702C83.0153 121.114 53.4915 120.48 48.8883 118.416C44.2851 116.353 45.8725 114.361 53.4915 111.591Z" fill="#0096E1"/>
</mask>
<g mask="url(#mask1_404_1338)">
<path d="M50.1583 116.193C47.7456 114.923 68.9414 107.304 78.7297 104.288C76.6662 103.812 48.4123 112.384 46.5075 113.495C44.6028 114.606 43.9678 114.923 45.3964 117.939C46.5393 120.352 64.6028 121.273 73.4916 121.431C67.4599 119.791 52.571 117.463 50.1583 116.193Z" fill="url(#paint5_linear_404_1338)"/>
<path d="M46.8248 133.814C49.682 129.846 65.9783 125.243 75.3963 122.862C52.9381 122.229 43.4018 128.057 40.5069 129.827L40.4756 129.846C37.6185 131.592 38.0947 134.132 37.936 134.766C37.809 135.274 40.1053 138.153 41.2693 139.528C43.8619 140.057 48.8248 140.989 47.936 140.481C46.8248 139.846 44.6616 136.819 46.8248 133.814Z" fill="url(#paint6_linear_404_1338)"/>
<path d="M105.238 137.941C101.809 135.528 83.174 133.02 74.2852 132.068C85.7137 131.115 100.634 132.861 107.936 135.242C115.238 137.623 113.809 141.274 114.285 141.274C114.666 141.274 110.211 142.226 107.936 142.702C108.465 142.12 108.666 140.353 105.238 137.941Z" fill="url(#paint7_linear_404_1338)"/>
</g>
</g>
<defs>
<linearGradient id="paint0_linear_404_1338" x1="29.6824" y1="26.6667" x2="141.428" y2="142.064" gradientUnits="userSpaceOnUse">
<stop stop-color="#F09BBE"/>
<stop offset="0.910836" stop-color="#8A596D" stop-opacity="0.06"/>
</linearGradient>
<linearGradient id="paint1_linear_404_1338" x1="-4.92066" y1="46.3532" x2="47.9365" y2="104.131" gradientUnits="userSpaceOnUse">
<stop stop-color="#F09BBE"/>
<stop offset="1" stop-color="white"/>
</linearGradient>
<linearGradient id="paint2_linear_404_1338" x1="42.4539" y1="92.4502" x2="58.9352" y2="108.927" gradientUnits="userSpaceOnUse">
<stop stop-color="#F09BBE"/>
<stop offset="1" stop-color="white"/>
</linearGradient>
<linearGradient id="paint3_linear_404_1338" x1="87.4598" y1="78.8892" x2="124.58" y2="106.516" gradientUnits="userSpaceOnUse">
<stop stop-color="#F09BBE"/>
<stop offset="1" stop-color="white"/>
</linearGradient>
<linearGradient id="paint4_linear_404_1338" x1="87.4598" y1="78.8892" x2="124.58" y2="106.516" gradientUnits="userSpaceOnUse">
<stop stop-color="#F09BBE"/>
<stop offset="1" stop-color="white"/>
</linearGradient>
<linearGradient id="paint5_linear_404_1338" x1="87.1906" y1="116.826" x2="41.4281" y2="108.574" gradientUnits="userSpaceOnUse">
<stop offset="0.683946" stop-color="#0096E1"/>
<stop offset="0.807086" stop-color="#1E9FE0"/>
<stop offset="0.906038" stop-color="#6DB8DD"/>
<stop offset="1" stop-color="white"/>
</linearGradient>
<linearGradient id="paint6_linear_404_1338" x1="36.6661" y1="118.417" x2="64.8036" y2="140.099" gradientUnits="userSpaceOnUse">
<stop stop-color="white"/>
<stop offset="0.316175" stop-color="#80CBF0"/>
<stop offset="0.522095" stop-color="#0096E1"/>
</linearGradient>
<linearGradient id="paint7_linear_404_1338" x1="116.031" y1="132.702" x2="72.8566" y2="133.814" gradientUnits="userSpaceOnUse">
<stop stop-color="white"/>
<stop offset="0.0432692" stop-color="#80CBF0"/>
<stop offset="0.504023" stop-color="#0096E1"/>
</linearGradient>
</defs>
</svg>
